
<svg xmlns="http://www.w3.org/2000/svg" version="1.1" xmlns:xlink="http://www.w3.org/1999/xlink" preserveAspectRatio="none" x="0px" y="0px" width="640px" height="480px" viewBox="0 0 640 480">
<defs>
<linearGradient id="Gradient_1" gradientUnits="userSpaceOnUse" x1="320.15" y1="155.125" x2="320.15" y2="322.975" spreadMethod="pad">
<stop  offset="0%" stop-color="#FD9813"/>

<stop  offset="100%" stop-color="#FDC01A"/>
</linearGradient>

<g id="Layer0_0_FILL">
<path fill="url(#Gradient_1)" stroke="none" d="
M 370.65 230.3
L 408.25 248.8
Q 439.5 194.6 470.75 140.4
L 169.5 140.4 209.9 210.35 344.05 276.35 320.1 317.85 288.6 263.35 221.45 230.3 320.2 401.35 401.8 259.95 240.9 180.75 399.2 180.75
Q 384.9 205.45 370.65 230.3 Z"/>

<path fill="#FFFFFF" stroke="none" d="
M 232.1 349.35
L 224.95 363.5
Q 261.65 391.8 308.95 394.8
L 299.4 378.25
Q 263.1 373.35 234.1 350.9 233.1 350.1 232.1 349.35
M 184.75 349.25
L 171 388.35 171.1 388.35 210.35 375.1 240.4 319.8 184.75 349.25
M 173.65 335.25
L 178.75 325.85 169.1 330.5 166.45 337.5 173.65 335.25
M 178.65 254.75
L 163.5 259.75
Q 169.1 301.8 195.9 335.05
L 210.25 327.95
Q 209.35 326.85 208.45 325.75 198.85 313.85 192.2 300.65 181.95 280.45 178.95 257.2 178.8 256 178.65 254.75
M 143.55 324.9
L 160.35 307.7 136.65 311.8 126.6 325.45 143.55 324.9
M 143.8 221.7
L 106.4 239.7 143.6 258.1 203.95 240.25 143.8 221.7
M 146.75 286.25
L 157.15 281 145.75 279.15 138.85 283.85 146.75 286.25
M 177.7 167.5
Q 173.1 176.8 169.85 186.65 167.7 193.1 166.2 199.8 163.9 209.6 162.9 219.95
L 178.15 225.15
Q 178.25 223.6 178.4 222.1 180.3 202.1 187.4 184.3
L 177.7 167.5
M 496.55 324.9
L 513.5 325.45 503.45 311.8 479.75 307.7 496.55 324.9
M 533.7 239.7
L 496.3 221.7 436.15 240.25 496.5 258.1 533.7 239.7
M 501.25 283.85
L 494.35 279.15 482.95 281 493.35 286.25 501.25 283.85
M 469.1 388.35
L 455.35 349.25 399.7 319.8 429.75 375.1 469 388.35 469.1 388.35
M 466.45 335.25
L 473.65 337.5 471 330.5 461.35 325.85 466.45 335.25
M 341.9 378.1
L 332.3 394.7 332.35 394.7
Q 378.85 391.5 415.15 363.5
L 408 349.25
Q 407.05 350 406.15 350.7 377.6 372.95 341.9 378.1
M 476.6 259.8
L 461.5 254.8
Q 461.35 256 461.2 257.2 456.25 295.5 431.7 325.65 430.75 326.8 429.8 327.95
L 444.25 335.05
Q 458.45 317.4 466.7 297.25 469.25 291 471.25 284.5 474.9 272.55 476.6 259.8
M 462.85 168.4
L 453.15 185.25
Q 459.9 202.65 461.75 222.1 461.9 223.6 462.05 225.1
L 477.25 219.95
Q 474.5 192.3 462.85 168.4
M 440.6 134.8
Q 436.4 130 431.8 125.35 405.2 98.8 372.25 87.5 347.9 79.15 320.1 79.15 292.25 79.15 267.9 87.5 234.95 98.8 208.35 125.35 203.7 130 199.6 134.8
L 220.85 134.8
Q 262.15 94.75 320.05 94.75 377.95 94.75 419.1 134.8
L 440.6 134.8 Z"/>
</g>
</defs>

<g id="Layer_1">
<g transform="matrix( 1, 0, 0, 1, 0,0) ">
<use xlink:href="#Layer0_0_FILL"/>
</g>

<g transform="matrix( 1.2085418701171875, 0, 0, 1.2085418701171875, 250.6,117.65) ">
<clipPath id="Mask_Mask_1">
<rect x="-2" y="-2" width="118.9" height="21.2" fill="#FFFFFF" stroke="none"/>
</clipPath>

<text clip-path="url(#Mask_Mask_1)" writing-mode="lr"><tspan x="0" y="13.3" baseline-shift="0%" font-family="NHL Ducks" font-size="19" fill="#FFFFFF" xml:space="preserve">SHAKEDOWN</tspan></text>
</g>
</g>
</svg>
