<?xml version="1.0" encoding="utf-8"?>
<!-- Generator: Adobe Illustrator 23.0.1, SVG Export Plug-In . SVG Version: 6.00 Build 0)  -->
<svg version="1.1" id="Layer_1" xmlns="http://www.w3.org/2000/svg" xmlns:xlink="http://www.w3.org/1999/xlink" x="0px" y="0px"
	 viewBox="0 0 357.93 405.05" style="enable-background:new 0 0 357.93 405.05;" xml:space="preserve">
<style type="text/css">
	.st0{fill:#FFFFFF;}
</style>
<g>
	<path class="st0" d="M678.99-317.96c-333.33,0-666.67,0-1000,0c0.22-0.31-0.51-1.04,0.5-1.01c1.33,0.04,2.67,0.01,4,0.01
		c330.33,0,660.67,0,991,0.06C675.96-318.9,677.88-320.05,678.99-317.96z"/>
	<path class="st0" d="M357.05,119.89c-10.33,0-20.65-0.09-30.98,0.06c-2.99,0.04-4.1-0.76-4-3.91c1.03-34.51,6.13-68.15,21.13-99.69
		c2.14-4.5,4.5-8.92,7.82-12.68c4.38-4.95,7.72-4.99,11.88,0.13c5.94,7.31,9.52,15.94,12.93,24.6
		c10.09,25.66,14.3,52.48,15.49,79.87c0.51,11.61,0.43,11.62-11.29,11.62C372.38,119.89,364.72,119.89,357.05,119.89z"/>
	<path class="st0" d="M178.9,119.91c-10.16,0-20.31-0.09-30.47,0.06c-3.03,0.04-4.51-0.44-4.37-4.03c1.3-33.77,6-66.81,20.35-97.86
		c2.17-4.69,4.62-9.22,7.73-13.34c4.81-6.39,8.99-6.35,13.8,0.16c6.4,8.65,10.26,18.59,13.9,28.58
		c9.65,26.52,12.9,54.16,14.08,82.15c0.16,3.74-1.24,4.4-4.56,4.34C199.21,119.79,189.05,119.91,178.9,119.91z"/>
	<path class="st0" d="M-0.05,119.89c-10.33-0.01-20.65-0.07-30.98,0.04c-2.73,0.03-3.9-0.72-3.78-3.67
		c1.09-27.85,4.25-55.34,13.71-81.77c3.31-9.23,6.95-18.33,12.28-26.63c0.54-0.84,1.08-1.67,1.68-2.47
		c5.39-7.21,9.43-7.22,14.67,0.22c6.97,9.88,11.28,21.09,15.03,32.44c8.24,24.97,11.52,50.79,12.39,76.99
		c0.14,4.07-1.18,5.04-5.03,4.94C19.94,119.73,9.94,119.89-0.05,119.89z"/>
	<path class="st0" d="M223.52,171.37c-6.04-12.69-11.28-25.64-9.5-40.21c0.43-3.48-1.85-3.13-4.06-3.13
		c-20.66,0.02-41.33,0.09-61.99-0.07c-3.43-0.03-4.33,1.15-4.01,4.27c1.26,12.35-2.44,23.57-7.5,34.63
		c-4.49,9.81-8.99,19.69-10.04,30.67c-0.17,1.82-0.42,3.65-0.42,5.47c-0.04,49.83-0.03,99.65-0.1,149.47
		c-0.01,4.89,0.99,8.94,6.07,10.82c1.64,0.61,2.25,1.68,2.18,3.42c-0.11,2.49-0.06,5,0.01,7.5c0.06,2.12-0.08,3.48-2.88,4.14
		c-3.52,0.83-5.24,3.92-5.3,7.61c-0.07,4.5,0.07,9-0.06,13.5c-0.12,4.17,2.06,5.64,5.88,5.56c3-0.06,6-0.05,9-0.05
		c28.16,0.01,56.32,0.03,84.49,0.03c5.71,0,6.72-1,6.77-6.61c0.04-4,0.02-8-0.01-12c-0.03-4.09-1.79-7.21-5.85-8.24
		c-1.95-0.49-2.37-1.34-2.34-3.02c0.05-2.83,0.06-5.67,0.01-8.5c-0.02-1.44,0.22-2.61,1.77-3.15c5.55-1.96,6.49-6.33,6.47-11.58
		c-0.11-24.66-0.05-49.32-0.05-73.99c-0.01,0-0.03,0-0.04,0c0-21.5-0.37-43,0.13-64.49C232.47,198.63,229.87,184.72,223.52,171.37z"
		/>
	<path class="st0" d="M46.75,363.47c5.39-1.8,6.41-5.98,6.39-11.08c-0.1-25.17-0.05-50.33-0.05-75.5c-0.01-23-0.16-46,0.06-69
		c0.11-11.54-2.3-22.37-6.94-32.88c-6.18-13.97-13.15-27.81-11.09-43.88c0.38-2.93-1.36-3.14-3.64-3.13
		c-20.83,0.05-41.67,0.1-62.5-0.04c-3.41-0.02-4.12,1.16-4.12,4.32c0.01,5.63,0.57,11.26-0.76,16.9
		c-1.86,7.84-5.41,14.99-8.58,22.28c-4.34,9.98-8.37,20.11-8.41,31.08c-0.22,50.5-0.15,101-0.18,151.5c0,3.81,1.43,7.22,4.9,8.59
		c3.33,1.31,3.56,3.4,3.42,6.2c-0.11,2.16-0.01,4.33-0.04,6.5c-0.01,1.4-0.23,2.33-2.03,2.79c-4.82,1.23-6.27,4.97-6.26,9.53
		c0.01,3.67,0.15,7.34-0.03,11c-0.23,4.79,2.01,6.57,6.63,6.38c4.99-0.2,10-0.06,15-0.06c25.5,0,51,0,76.5,0
		c7.8,0,8.04-0.25,8.06-8.25c0.01-3.5-0.02-7,0.03-10.5c0.05-3.76-1.57-6.75-5.1-7.71c-3.06-0.83-3.29-2.53-3.16-5
		c0.13-2.33,0.1-4.67,0.01-7C44.79,364.99,45.23,363.98,46.75,363.47z"/>
	<path class="st0" d="M410.08,386.51c-0.11-3.79-1.68-7.15-5.41-8.14c-2.72-0.72-2.94-2.06-2.89-4.19c0.06-2.5,0.04-5,0.03-7.5
		c0-1.39,0.12-2.63,1.72-3.22c5.71-2.09,6.63-6.66,6.62-12.07c-0.08-46-0.27-92,0.08-138c0.12-15.51-2.91-29.99-9.6-43.88
		c-5.6-11.62-10.22-23.55-8.52-36.87c0.49-3.83-0.99-4.73-4.69-4.7c-20.33,0.18-40.67,0.2-61-0.02c-3.95-0.04-4.84,1.27-4.55,4.84
		c0.9,11.05-1.38,21.49-6.45,31.34c-9.13,17.73-12.16,36.47-11.71,56.43c0.79,35.98,0.22,71.99,0.23,107.99c0,8.67,0.05,17.33,0,26
		c-0.02,3.91,1.56,7.08,5.1,8.37c2.91,1.06,3.31,2.71,3.14,5.24c-0.12,1.82-0.16,3.68,0.01,5.49c0.26,2.63-0.42,4.09-3.29,4.92
		c-3.32,0.96-4.96,3.75-4.97,7.3c-0.01,4.17-0.01,8.33,0.02,12.5c0.04,5.81,0.81,6.6,6.7,6.61c15.5,0.02,31,0.01,46.5,0.01
		c15.5,0.01,31-0.08,46.5,0.06c4.72,0.04,6.71-1.84,6.5-6.53C409.95,394.52,410.19,390.51,410.08,386.51z"/>
</g>
</svg>
